<?xml version="1.0" standalone="no"?>
<!DOCTYPE svg PUBLIC "-//W3C//DTD SVG 20010904//EN"
 "http://www.w3.org/TR/2001/REC-SVG-20010904/DTD/svg10.dtd">
<svg version="1.0" xmlns="http://www.w3.org/2000/svg"
 width="400.000000pt" height="400.000000pt" viewBox="0 0 400.000000 400.000000"
 preserveAspectRatio="xMidYMid meet">
<g transform="translate(0.000000,400.000000) scale(0.100000,-0.100000)"
fill="#000000" stroke="none">
<path d="M277 3728 c-9 -5 -12 -198 -10 -795 1 -433 2 -791 2 -794 1 -3 360
-5 799 -5 l797 1 0 265 0 265 -133 0 -132 0 0 268 0 267 -134 0 -134 0 1 133
1 132 -254 2 c-140 0 -261 2 -267 2 -10 1 -13 35 -13 134 l0 132 -256 0 c-140
0 -261 -3 -267 -7z"/>
<path d="M2164 3732 l-31 -3 0 -798 1 -798 798 0 798 0 1 26 c0 14 1 134 2
266 l1 240 -127 1 c-70 0 -130 4 -134 7 -3 4 -6 124 -6 267 l0 260 -134 0
-133 0 0 134 0 133 -242 1 c-134 0 -254 1 -268 1 l-25 1 0 132 0 131 -235 1
c-129 1 -249 0 -266 -2z"/>
<path d="M266 1073 c0 -436 4 -796 7 -800 5 -5 1429 -8 1568 -4 l26 1 0 783
c1 430 -1 789 -3 798 -4 14 -83 16 -802 16 l-797 0 1 -794z"/>
<path d="M2138 1861 c-1 -3 -2 -363 -3 -798 -2 -719 0 -793 14 -794 9 0 368
-1 799 -2 689 -2 782 0 783 13 4 70 3 1574 -1 1579 -6 9 -1589 11 -1592 2z"/>
</g>
</svg>
