<svg clip-rule="evenodd" fill-rule="evenodd" stroke-linejoin="round" stroke-miterlimit="2" viewBox="0 0 192 192" xmlns="http://www.w3.org/2000/svg"><g fill="#5885e4"><path d="m72 6v18h-24v-24h24z"/><path d="m72 102v18h-24v-24h24z"/><path d="m72 54v18h-24v-24h24z"/><path d="m72 150v18h-24v-24h24z"/><path d="m72 30v18h-24v-24h24z"/><path d="m72 126v18h-24v-24h24z"/><path d="m72 78v18h-24v-24h24z"/><path d="m72 174v18h-24v-24h24z"/></g><path d="m144 6v18h-24v-24h24z" fill="#967fdf"/><path d="m144 102v18h-24v-24h24z" fill="#967fdf"/><path d="m144 54v18h-24v-24h24z" fill="#967fdf"/><path d="m144 150v18h-24v-24h24z" fill="#967fdf"/><path d="m144 30v18h-24v-24h24z" fill="#967fdf"/><path d="m144 126v18h-24v-24h24z" fill="#967fdf"/><path d="m144 78v18h-24v-24h24z" fill="#967fdf"/><path d="m144 174v18h-24v-24h24z" fill="#967fdf"/><path d="m48 6v18h-24v-24h24z" fill="#519beb"/><path d="m48 102v18h-24v-24h24z" fill="#519beb"/><path d="m48 54v18h-24v-24h24z" fill="#519beb"/><path d="m48 150v18h-24v-24h24z" fill="#519beb"/><path d="m48 30v18h-24v-24h24z" fill="#519beb"/><path d="m48 126v18h-24v-24h24z" fill="#519beb"/><path d="m48 78v18h-24v-24h24z" fill="#519beb"/><path d="m48 174v18h-24v-24h24z" fill="#519beb"/><path d="m120 6v18h-24v-24h24z" fill="#746dda"/><path d="m120 102v18h-24v-24h24z" fill="#746dda"/><path d="m120 54v18h-24v-24h24z" fill="#746dda"/><path d="m120 150v18h-24v-24h24z" fill="#746dda"/><path d="m120 30v18h-24v-24h24z" fill="#746dda"/><path d="m120 126v18h-24v-24h24z" fill="#746dda"/><path d="m120 78v18h-24v-24h24z" fill="#746dda"/><path d="m120 174v18h-24v-24h24z" fill="#746dda"/><path d="m24 6v18h-18-6v-24h24z" fill="#45bcf7"/><path d="m24 102v18h-18-6v-24h24z" fill="#45bcf7"/><path d="m24 54v18h-18-6v-24h24z" fill="#45bcf7"/><path d="m24 150v18h-18-6v-24h24z" fill="#45bcf7"/><path d="m24 30v18h-18-6v-24h24z" fill="#45bcf7"/><path d="m24 126v18h-18-6v-24h24z" fill="#45bcf7"/><path d="m24 78v18h-18-6v-24h24z" fill="#45bcf7"/><path d="m24 174v18h-18-6v-24h24z" fill="#45bcf7"/><path d="m96 6v18h-24v-24h24z" fill="#606fdc"/><path d="m96 102v18h-24v-24h24z" fill="#606fdc"/><path d="m96 54v18h-24v-24h24z" fill="#606fdc"/><path d="m96 150v18h-24v-24h24z" fill="#606fdc"/><path d="m96 30v18h-24v-24h24z" fill="#606fdc"/><path d="m96 126v18h-24v-24h24z" fill="#606fdc"/><path d="m96 78v18h-24v-24h24z" fill="#606fdc"/><path d="m96 174v18h-24v-24h24z" fill="#606fdc"/><path d="m168 6v18h-24v-24h24z" fill="#b892e4"/><path d="m168 102v18h-24v-24h24z" fill="#b892e4"/><path d="m168 54v18h-24v-24h24z" fill="#b892e4"/><path d="m168 150v18h-24v-24h24z" fill="#b892e4"/><path d="m168 30v18h-24v-24h24z" fill="#b892e4"/><path d="m168 126v18h-24v-24h24z" fill="#b892e4"/><path d="m168 78v18h-24v-24h24z" fill="#b892e4"/><path d="m168 174v18h-24v-24h24z" fill="#b892e4"/><path d="m192 6v18h-24v-24h24z" fill="#ebadeb"/><path d="m192 102v18h-24v-24h24z" fill="#ebadeb"/><path d="m192 54v18h-24v-24h24z" fill="#ebadeb"/><path d="m192 150v18h-24v-24h24z" fill="#ebadeb"/><path d="m192 30v18h-24v-24h24z" fill="#ebadeb"/><path d="m192 126v18h-24v-24h24z" fill="#ebadeb"/><path d="m192 78v18h-24v-24h24z" fill="#ebadeb"/><path d="m192 174v18h-24v-24h24z" fill="#ebadeb"/></svg>