<?xml version="1.0" encoding="UTF-8" standalone="no"?><!DOCTYPE svg PUBLIC "-//W3C//DTD SVG 1.1//EN" "http://www.w3.org/Graphics/SVG/1.1/DTD/svg11.dtd"><svg width="100%" height="100%" viewBox="0 0 192 192" version="1.1" xmlns="http://www.w3.org/2000/svg" xmlns:xlink="http://www.w3.org/1999/xlink" xml:space="preserve" xmlns:serif="http://www.serif.com/" style="fill-rule:evenodd;clip-rule:evenodd;stroke-linejoin:round;stroke-miterlimit:2;"><path d="M72,6l0,18l-24,0l0,-24l24,0l0,6Z" style="fill:#5885e4;"/><path d="M72,102l0,18l-24,0l0,-24l24,0l0,6Z" style="fill:#5885e4;"/><path d="M72,54l0,18l-24,0l0,-24l24,0l0,6Z" style="fill:#5885e4;"/><path d="M72,150l0,18l-24,0l0,-24l24,0l0,6Z" style="fill:#5885e4;"/><path d="M72,30l0,18l-24,0l0,-24l24,0l0,6Z" style="fill:#5885e4;"/><path d="M72,126l0,18l-24,0l0,-24l24,0l0,6Z" style="fill:#5885e4;"/><path d="M72,78l0,18l-24,0l0,-24l24,0l0,6Z" style="fill:#5885e4;"/><path d="M72,174l0,18l-24,0l0,-24l24,0l0,6Z" style="fill:#5885e4;"/><path d="M144,6l0,18l-24,0l0,-24l24,0l0,6Z" style="fill:#967fdf;"/><path d="M144,102l0,18l-24,0l0,-24l24,0l0,6Z" style="fill:#967fdf;"/><path d="M144,54l0,18l-24,0l0,-24l24,0l0,6Z" style="fill:#967fdf;"/><path d="M144,150l0,18l-24,0l0,-24l24,0l0,6Z" style="fill:#967fdf;"/><path d="M144,30l0,18l-24,0l0,-24l24,0l0,6Z" style="fill:#967fdf;"/><path d="M144,126l0,18l-24,0l0,-24l24,0l0,6Z" style="fill:#967fdf;"/><path d="M144,78l0,18l-24,0l0,-24l24,0l0,6Z" style="fill:#967fdf;"/><path d="M144,174l0,18l-24,0l0,-24l24,0l0,6Z" style="fill:#967fdf;"/><path d="M48,6l0,18l-24,0l0,-24l24,0l0,6Z" style="fill:#519beb;"/><path d="M48,102l0,18l-24,0l0,-24l24,0l0,6Z" style="fill:#519beb;"/><path d="M48,54l0,18l-24,0l0,-24l24,0l0,6Z" style="fill:#519beb;"/><path d="M48,150l0,18l-24,0l0,-24l24,0l0,6Z" style="fill:#519beb;"/><path d="M48,30l0,18l-24,0l0,-24l24,0l0,6Z" style="fill:#519beb;"/><path d="M48,126l0,18l-24,0l0,-24l24,0l0,6Z" style="fill:#519beb;"/><path d="M48,78l0,18l-24,0l0,-24l24,0l0,6Z" style="fill:#519beb;"/><path d="M48,174l0,18l-24,0l0,-24l24,0l0,6Z" style="fill:#519beb;"/><path d="M120,6l0,18l-24,0l0,-24l24,0l0,6Z" style="fill:#746dda;"/><path d="M120,102l0,18l-24,0l0,-24l24,0l0,6Z" style="fill:#746dda;"/><path d="M120,54l0,18l-24,0l0,-24l24,0l0,6Z" style="fill:#746dda;"/><path d="M120,150l0,18l-24,0l0,-24l24,0l0,6Z" style="fill:#746dda;"/><path d="M120,30l0,18l-24,0l0,-24l24,0l0,6Z" style="fill:#746dda;"/><path d="M120,126l0,18l-24,0l0,-24l24,0l0,6Z" style="fill:#746dda;"/><path d="M120,78l0,18l-24,0l0,-24l24,0l0,6Z" style="fill:#746dda;"/><path d="M120,174l0,18l-24,0l0,-24l24,0l0,6Z" style="fill:#746dda;"/><path d="M24,6l0,18l-18,0l-6,0l0,-24l24,0l0,6Z" style="fill:#45bcf7;"/><path d="M24,102l0,18l-18,0l-6,0l0,-24l24,0l0,6Z" style="fill:#45bcf7;"/><path d="M24,54l0,18l-18,0l-6,0l0,-24l24,0l0,6Z" style="fill:#45bcf7;"/><path d="M24,150l0,18l-18,0l-6,0l0,-24l24,0l0,6Z" style="fill:#45bcf7;"/><path d="M24,30l0,18l-18,0l-6,0l0,-24l24,0l0,6Z" style="fill:#45bcf7;"/><path d="M24,126l0,18l-18,0l-6,0l0,-24l24,0l0,6Z" style="fill:#45bcf7;"/><path d="M24,78l0,18l-18,0l-6,0l0,-24l24,0l0,6Z" style="fill:#45bcf7;"/><path d="M24,174l0,18l-18,0l-6,0l0,-24l24,0l0,6Z" style="fill:#45bcf7;"/><path d="M96,6l0,18l-24,0l0,-24l24,0l0,6Z" style="fill:#606fdc;"/><path d="M96,102l0,18l-24,0l0,-24l24,0l0,6Z" style="fill:#606fdc;"/><path d="M96,54l0,18l-24,0l0,-24l24,0l0,6Z" style="fill:#606fdc;"/><path d="M96,150l0,18l-24,0l0,-24l24,0l0,6Z" style="fill:#606fdc;"/><path d="M96,30l0,18l-24,0l0,-24l24,0l0,6Z" style="fill:#606fdc;"/><path d="M96,126l0,18l-24,0l0,-24l24,0l0,6Z" style="fill:#606fdc;"/><path d="M96,78l0,18l-24,0l0,-24l24,0l0,6Z" style="fill:#606fdc;"/><path d="M96,174l0,18l-24,0l0,-24l24,0l0,6Z" style="fill:#606fdc;"/><path d="M168,6l0,18l-24,0l0,-24l24,0l0,6Z" style="fill:#b892e4;"/><path d="M168,102l0,18l-24,0l0,-24l24,0l0,6Z" style="fill:#b892e4;"/><path d="M168,54l0,18l-24,0l0,-24l24,0l0,6Z" style="fill:#b892e4;"/><path d="M168,150l0,18l-24,0l0,-24l24,0l0,6Z" style="fill:#b892e4;"/><path d="M168,30l0,18l-24,0l0,-24l24,0l0,6Z" style="fill:#b892e4;"/><path d="M168,126l0,18l-24,0l0,-24l24,0l0,6Z" style="fill:#b892e4;"/><path d="M168,78l0,18l-24,0l0,-24l24,0l0,6Z" style="fill:#b892e4;"/><path d="M168,174l0,18l-24,0l0,-24l24,0l0,6Z" style="fill:#b892e4;"/><path d="M192,6l0,18l-24,0l0,-24l24,0l0,6Z" style="fill:#ebadeb;"/><path d="M192,102l0,18l-24,0l0,-24l24,0l0,6Z" style="fill:#ebadeb;"/><path d="M192,54l0,18l-24,0l0,-24l24,0l0,6Z" style="fill:#ebadeb;"/><path d="M192,150l0,18l-24,0l0,-24l24,0l0,6Z" style="fill:#ebadeb;"/><path d="M192,30l0,18l-24,0l0,-24l24,0l0,6Z" style="fill:#ebadeb;"/><path d="M192,126l0,18l-24,0l0,-24l24,0l0,6Z" style="fill:#ebadeb;"/><path d="M192,78l0,18l-24,0l0,-24l24,0l0,6Z" style="fill:#ebadeb;"/><path d="M192,174l0,18l-24,0l0,-24l24,0l0,6Z" style="fill:#ebadeb;"/></svg>