<svg clip-rule="evenodd" fill-rule="evenodd" stroke-linejoin="round" stroke-miterlimit="2" viewBox="0 0 136 136" xmlns="http://www.w3.org/2000/svg"><path d="m8 0h-8v48h48v-8h-8v-8h-8v-8h-8v-8h-8v-8h-8zm40 8h-16z" fill="#00ffe4" transform="translate(16 16)"/><path d="m8 0h-8v48h48v-8h-8v-8h-8v-8h-8v-8h-8v-8h-8zm40 8h-16z" fill="#00ffe4" transform="translate(72 16)"/><g fill="#9b70ff"><path d="m992 1034.32h24v58.668h-24z" transform="matrix(2 0 0 .818162 -1968 -774.244)"/><path d="m992 1034.32h24v58.668h-24z" transform="matrix(2 0 0 .818162 -1912 -774.244)"/></g></svg>