<?xml version="1.0" encoding="UTF-8" standalone="no"?>
<!DOCTYPE svg PUBLIC "-//W3C//DTD SVG 1.1//EN" "http://www.w3.org/Graphics/SVG/1.1/DTD/svg11.dtd">
<svg width="100%" height="100%" viewBox="0 0 104 104" version="1.1" xmlns="http://www.w3.org/2000/svg" xmlns:xlink="http://www.w3.org/1999/xlink" xml:space="preserve" xmlns:serif="http://www.serif.com/" style="fill-rule:evenodd;clip-rule:evenodd;stroke-linejoin:round;stroke-miterlimit:2;">
    <g transform="matrix(1,0,0,1,60,24)">
        <g transform="matrix(1,0,0,1,-60,-24)">
            <path d="M8,0L0,0L0,48L48,48L48,40L40,40L40,32L32,32L32,24L24,24L24,16L16,16L16,8L8,8L8,0ZM48,8L32,8L48,8Z" style="fill:rgb(155,112,255);"/>
        </g>
        <g transform="matrix(1,0,0,1,-4,-24)">
            <path d="M8,0L0,0L0,48L48,48L48,40L40,40L40,32L32,32L32,24L24,24L24,16L16,16L16,8L8,8L8,0ZM48,8L32,8L48,8Z" style="fill:rgb(155,112,255);"/>
        </g>
        <g transform="matrix(2,0,0,0.818162,-2044,-814.244)">
            <rect x="992" y="1034.32" width="24" height="58.668" style="fill:rgb(155,112,255);"/>
        </g>
        <g transform="matrix(2,0,0,0.818162,-1988,-814.244)">
            <rect x="992" y="1034.32" width="24" height="58.668" style="fill:rgb(155,112,255);"/>
        </g>
    </g>
</svg>
