<?xml version="1.0" encoding="UTF-8" standalone="no"?><!DOCTYPE svg PUBLIC "-//W3C//DTD SVG 1.1//EN" "http://www.w3.org/Graphics/SVG/1.1/DTD/svg11.dtd"><svg width="100%" height="100%" viewBox="0 0 81 81" version="1.1" xmlns="http://www.w3.org/2000/svg" xmlns:xlink="http://www.w3.org/1999/xlink" xml:space="preserve" xmlns:serif="http://www.serif.com/" style="fill-rule:evenodd;clip-rule:evenodd;stroke-linejoin:round;stroke-miterlimit:2;"><path d="M27.098,74.054l3,0l0,-6l3,0l0,-6l3,0l0,-6l3,0l0,-6l3,0l0,6l3,0l0,6l3,0l0,6l3,0l0,6l3,0l0,6l-27,0l0,-6Z" style="fill:#746dda;fill-opacity:0.5;"/><path d="M57.07,75.602l2.121,-2.122l-4.243,-4.242l2.122,-2.122l-4.243,-4.242l2.121,-2.122l-4.242,-4.242l2.121,-2.122l-4.243,-4.242l2.122,-2.122l4.242,4.243l2.122,-2.121l4.242,4.242l2.122,-2.121l4.242,4.243l2.122,-2.122l4.242,4.243l2.122,-2.121l4.242,4.242l-19.092,19.092l-4.242,-4.242Z" style="fill:#606fdc;fill-opacity:0.5;"/><path d="M6.152,26.504l0,3l6,0l0,3l6,0l0,3l6,0l0,3l6,0l0,3l-6,0l0,3l-6,0l0,3l-6,0l0,3l-6,0l0,3l-6,0l0,-27l6,0Z" style="fill:#b892e4;fill-opacity:0.5;"/><path d="M4.243,56.79l2.121,2.121l4.243,-4.243l2.121,2.122l4.243,-4.243l2.121,2.121l4.243,-4.242l2.121,2.121l4.242,-4.243l2.122,2.122l-4.243,4.242l2.121,2.122l-4.242,4.242l2.121,2.122l-4.242,4.242l2.121,2.122l-4.243,4.242l2.122,2.122l-4.243,4.242l-19.092,-19.092l4.243,-4.242Z" style="fill:#967fdf;fill-opacity:0.5;"/><path d="M74.252,53.504l0,-3l-6,0l0,-3l-6,0l0,-3l-6,0l0,-3l-6,0l0,-3l6,0l0,-3l6,0l0,-3l6,0l0,-3l6,0l0,-3l6,0l0,27l-6,0Z" style="fill:#5885e4;fill-opacity:0.5;"/><path d="M75.882,23.335l-2.122,-2.122l-4.242,4.243l-2.122,-2.121l-4.242,4.242l-2.122,-2.121l-4.242,4.242l-2.122,-2.121l-4.242,4.243l-2.122,-2.122l4.243,-4.242l-2.121,-2.121l4.242,-4.243l-2.121,-2.121l4.243,-4.243l-2.122,-2.121l4.243,-4.243l-2.121,-2.121l4.242,-4.243l19.092,19.092l-4.242,4.243Z" style="fill:#519beb;fill-opacity:0.5;"/><path d="M53.702,6.35l-3,0l0,6l-3,0l0,6l-3,0l0,6l-3,0l0,6l-3,0l0,-6l-3,0l0,-6l-3,0l0,-6l-3,0l0,-6l-3,0l0,-6l27,0l0,6Z" style="fill:#45bcf7;fill-opacity:0.5;"/><path d="M23.615,4.523l-2.122,2.121l4.243,4.243l-2.121,2.121l4.242,4.243l-2.121,2.121l4.243,4.243l-2.122,2.121l4.243,4.243l-2.121,2.121l-4.243,-4.243l-2.121,2.122l-4.243,-4.243l-2.121,2.121l-4.243,-4.242l-2.121,2.121l-4.243,-4.243l-2.121,2.122l-4.243,-4.243l19.092,-19.092l4.243,4.243Z" style="fill:#ebadeb;fill-opacity:0.5;"/></svg>