<?xml version="1.0" encoding="UTF-8" standalone="no"?><!DOCTYPE svg PUBLIC "-//W3C//DTD SVG 1.1//EN" "http://www.w3.org/Graphics/SVG/1.1/DTD/svg11.dtd"><svg width="100%" height="100%" viewBox="0 0 192 24" version="1.1" xmlns="http://www.w3.org/2000/svg" xmlns:xlink="http://www.w3.org/1999/xlink" xml:space="preserve" xmlns:serif="http://www.serif.com/" style="fill-rule:evenodd;clip-rule:evenodd;stroke-linejoin:round;stroke-miterlimit:2;"><path d="M102,12l6,0l0,6l6,0l0,6l6,0l0,-24l-24,0l0,6l6,0l0,6Z" style="fill:#fdf987;"/><path d="M54,12l6,0l0,6l6,0l0,6l6,0l0,-24l-24,0l0,6l6,0l0,6Z" style="fill:#48ea69;"/><path d="M6,12l6,0l0,6l6,0l0,6l6,0l0,-24l-24,0l0,6l6,0l0,6Z" style="fill:#57c6fa;"/><path d="M150,12l6,0l0,6l6,0l0,6l6,0l0,-24l-24,0l0,6l6,0l0,6Z" style="fill:#fa7676;"/></svg>