<?xml version="1.0" encoding="UTF-8" standalone="no"?><!DOCTYPE svg PUBLIC "-//W3C//DTD SVG 1.1//EN" "http://www.w3.org/Graphics/SVG/1.1/DTD/svg11.dtd"><svg width="100%" height="100%" viewBox="0 0 192 24" version="1.1" xmlns="http://www.w3.org/2000/svg" xmlns:xlink="http://www.w3.org/1999/xlink" xml:space="preserve" xmlns:serif="http://www.serif.com/" style="fill-rule:evenodd;clip-rule:evenodd;stroke-linejoin:round;stroke-miterlimit:2;"><path d="M126,12l-6,0l0,6l-6,0l0,6l-6,0l0,-24l24,0l0,6l-6,0l0,6Z" style="fill:#6464d8;fill-opacity:0.5;"/><path d="M78,12l-6,0l0,6l-6,0l0,6l-6,0l0,-24l24,0l0,6l-6,0l0,6Z" style="fill:#3b6cce;fill-opacity:0.5;"/><path d="M30,12l-6,0l0,6l-6,0l0,6l-6,0l0,-24l24,0l0,6l-6,0l0,6Z" style="fill:#45bcf7;fill-opacity:0.5;"/><path d="M174,12l-6,0l0,6l-6,0l0,6l-6,0l0,-24l24,0l0,6l-6,0l0,6Z" style="fill:#ebadeb;fill-opacity:0.5;"/></svg>