<?xml version="1.0" encoding="UTF-8" standalone="no"?>
<!DOCTYPE svg PUBLIC "-//W3C//DTD SVG 1.1//EN" "http://www.w3.org/Graphics/SVG/1.1/DTD/svg11.dtd">
<svg width="100%" height="100%" viewBox="0 0 89 89" version="1.1" xmlns="http://www.w3.org/2000/svg" xmlns:xlink="http://www.w3.org/1999/xlink" xml:space="preserve" xmlns:serif="http://www.serif.com/" style="fill-rule:evenodd;clip-rule:evenodd;stroke-linejoin:round;stroke-miterlimit:2;">
    <g transform="matrix(1,0,0,1,-617,-1519)">
        <g transform="matrix(0.421875,0,0,0.421875,187.906,1088.73)">
            <g id="_0001" serif:id="0001" transform="matrix(8.39909,0,0,8.39909,930.795,924.355)">
                <path d="M13.127,22.087C13.891,16.372 18.023,12 23,12C27.874,12 31.938,16.193 32.821,21.735C33.147,22.098 33.457,22.524 33.732,23C34.836,24.912 34.956,26.912 34,27.464C33.618,27.684 33.123,27.641 32.595,27.387C31.376,32.363 27.539,36 23,36C18.023,36 13.891,31.628 13.127,25.913C11.897,25.664 11,24.901 11,24C11,23.099 11.897,22.336 13.127,22.087Z" style="fill:rgb(255,229,62);stroke:black;stroke-width:0.94px;"/>
            </g>
        </g>
    </g>
</svg>
