<?xml version="1.0" encoding="UTF-8" standalone="no"?>
<!DOCTYPE svg PUBLIC "-//W3C//DTD SVG 1.1//EN" "http://www.w3.org/Graphics/SVG/1.1/DTD/svg11.dtd">
<svg width="100%" height="100%" viewBox="0 0 86 68" version="1.1" xmlns="http://www.w3.org/2000/svg" xmlns:xlink="http://www.w3.org/1999/xlink" xml:space="preserve" xmlns:serif="http://www.serif.com/" style="fill-rule:evenodd;clip-rule:evenodd;stroke-linejoin:round;stroke-miterlimit:2;">
    <g transform="matrix(1,0,0,1,-1128,-1530)">
        <g transform="matrix(0.421875,0,0,0.421875,187.906,1088.73)">
            <g id="_0004" serif:id="0004" transform="matrix(8.39909,0,0,8.39909,930.795,924.355)">
                <path d="M157.493,21.994C158.507,17.991 162.49,15 167.243,15C172.063,15 176.091,18.076 177.034,22.163C177.745,22.47 178.243,23.177 178.243,24C178.243,24.823 177.745,25.53 177.034,25.837C176.091,29.924 172.063,33 167.243,33C162.809,33 159.045,30.397 157.737,26.798C156.769,27.255 155.886,27.301 155.414,26.828C154.634,26.048 155.267,24.147 156.828,22.586C157.044,22.37 157.267,22.172 157.493,21.994Z" style="fill:rgb(255,229,62);stroke:black;stroke-width:0.94px;"/>
            </g>
        </g>
    </g>
</svg>
