<?xml version="1.0" encoding="UTF-8" standalone="no"?>
<!DOCTYPE svg PUBLIC "-//W3C//DTD SVG 1.1//EN" "http://www.w3.org/Graphics/SVG/1.1/DTD/svg11.dtd">
<svg width="100%" height="100%" viewBox="0 0 97 82" version="1.1" xmlns="http://www.w3.org/2000/svg" xmlns:xlink="http://www.w3.org/1999/xlink" xml:space="preserve" xmlns:serif="http://www.serif.com/" style="fill-rule:evenodd;clip-rule:evenodd;stroke-linejoin:round;stroke-miterlimit:2;">
    <g transform="matrix(1,0,0,1,-1294,-1523)">
        <g transform="matrix(0.421875,0,0,0.421875,187.906,1088.73)">
            <g id="_0005" serif:id="0005" transform="matrix(8.39909,0,0,8.39909,930.795,924.355)">
                <path d="M203.414,21.131C204.79,16.45 209.459,13 215,13C220.541,13 225.21,16.45 226.586,21.131C227.404,21.507 228,22.65 228,24C228,25.35 227.404,26.493 226.586,26.869C225.21,31.55 220.541,35 215,35C209.459,35 204.79,31.55 203.414,26.869C202.596,26.493 202,25.35 202,24C202,22.65 202.596,21.507 203.414,21.131Z" style="fill:rgb(255,229,62);stroke:black;stroke-width:0.94px;"/>
            </g>
        </g>
    </g>
</svg>
