<?xml version="1.0" encoding="UTF-8" standalone="no"?>
<!DOCTYPE svg PUBLIC "-//W3C//DTD SVG 1.1//EN" "http://www.w3.org/Graphics/SVG/1.1/DTD/svg11.dtd">
<svg width="100%" height="100%" viewBox="0 0 107 68" version="1.1" xmlns="http://www.w3.org/2000/svg" xmlns:xlink="http://www.w3.org/1999/xlink" xml:space="preserve" xmlns:serif="http://www.serif.com/" style="fill-rule:evenodd;clip-rule:evenodd;stroke-linejoin:round;stroke-miterlimit:2;">
    <g transform="matrix(1,0,0,1,-1461,-1530)">
        <g transform="matrix(0.421875,0,0,0.421875,187.906,1088.73)">
            <g id="_0006" serif:id="0006" transform="matrix(8.39909,0,0,8.39909,930.795,924.355)">
                <path d="M251.318,20.051C253.432,17.06 257.871,15 263,15C268.114,15 272.543,17.049 274.664,20.026C274.774,20.008 274.886,20 275,20C276.656,20 278,21.792 278,24C278,26.208 276.656,28 275,28C274.886,28 274.774,27.992 274.664,27.974C272.543,30.951 268.114,33 263,33C257.871,33 253.432,30.94 251.318,27.949C251.214,27.983 251.108,28 251,28C249.896,28 249,26.208 249,24C249,21.792 249.896,20 251,20C251.108,20 251.214,20.017 251.318,20.051Z" style="fill:rgb(255,229,62);stroke:black;stroke-width:0.94px;"/>
            </g>
        </g>
    </g>
</svg>
