<?xml version="1.0" encoding="UTF-8" standalone="no"?>
<!DOCTYPE svg PUBLIC "-//W3C//DTD SVG 1.1//EN" "http://www.w3.org/Graphics/SVG/1.1/DTD/svg11.dtd">
<svg width="100%" height="100%" viewBox="0 0 102 75" version="1.1" xmlns="http://www.w3.org/2000/svg" xmlns:xlink="http://www.w3.org/1999/xlink" xml:space="preserve" xmlns:serif="http://www.serif.com/" style="fill-rule:evenodd;clip-rule:evenodd;stroke-linejoin:round;stroke-miterlimit:2;">
    <g transform="matrix(1,0,0,1,-1634,-1526)">
        <g transform="matrix(0.421875,0,0,0.421875,187.906,1088.73)">
            <g id="_0007" serif:id="0007" transform="matrix(8.39909,0,0,8.39909,930.795,924.355)">
                <path d="M299.518,21.088C301.015,16.987 305.592,14 311,14C316.614,14 321.333,17.22 322.64,21.563C323.945,21.184 325.071,21.32 325.464,22C326.016,22.956 324.912,24.628 323,25.732L322.795,25.843C321.757,30.483 316.867,34 311,34C305.592,34 301.015,31.013 299.518,26.912C298.647,26.588 298,25.407 298,24C298,22.593 298.647,21.412 299.518,21.088Z" style="fill:rgb(255,229,62);stroke:black;stroke-width:0.94px;"/>
            </g>
        </g>
    </g>
</svg>
