<?xml version="1.0" encoding="UTF-8" standalone="no"?>
<!DOCTYPE svg PUBLIC "-//W3C//DTD SVG 1.1//EN" "http://www.w3.org/Graphics/SVG/1.1/DTD/svg11.dtd">
<svg width="100%" height="100%" viewBox="0 0 107 82" version="1.1" xmlns="http://www.w3.org/2000/svg" xmlns:xlink="http://www.w3.org/1999/xlink" xml:space="preserve" xmlns:serif="http://www.serif.com/" style="fill-rule:evenodd;clip-rule:evenodd;stroke-linejoin:round;stroke-miterlimit:2;">
    <g transform="matrix(1,0,0,1,-1801,-1523)">
        <g transform="matrix(0.421875,0,0,0.421875,187.906,1088.73)">
            <g id="_0008" serif:id="0008" transform="matrix(8.39909,0,0,8.39909,930.795,924.355)">
                <path d="M348.72,20.004C350.463,15.906 354.814,13 359.899,13C365.409,13 370.056,16.411 371.46,21.054C372.848,21.316 373.899,22.536 373.899,24C373.899,25.464 372.848,26.684 371.46,26.946C370.056,31.589 365.409,35 359.899,35C354.814,35 350.463,32.094 348.721,27.996C347.024,27.921 345.498,26.761 345.035,25.035C344.464,22.903 345.731,20.708 347.864,20.136C348.149,20.06 348.436,20.016 348.72,20.004Z" style="fill:rgb(255,229,62);stroke:black;stroke-width:0.94px;"/>
            </g>
        </g>
    </g>
</svg>
